<svg id="Layer_1" data-name="Layer 1" xmlns="http://www.w3.org/2000/svg" viewBox="0 0 512 512"><defs><style>.cls-1{fill:#898989;}</style></defs><title>magnifying-glass-other</title><path class="cls-1" d="M506.31,512a5.67,5.67,0,0,1-4-1.67l-151-151a5.69,5.69,0,0,1,8-8l151,151a5.69,5.69,0,0,1-4,9.71Z"/><path class="cls-1" d="M210.49,421C94.42,421,0,326.56,0,210.49S94.42,0,210.49,0,421,94.42,421,210.49,326.56,421,210.49,421Zm0-409.6C100.7,11.38,11.38,100.7,11.38,210.49S100.7,409.6,210.49,409.6,409.6,320.28,409.6,210.49,320.28,11.38,210.49,11.38Z"/></svg>